<svg xmlns="http://www.w3.org/2000/svg" viewBox="0 0 562.06 519.421"><defs><style>.cls-1{fill:#9c3;}.cls-2{fill:#502e87;}</style></defs><g id="Layer_2" data-name="Layer 2"><g id="Layer_13" data-name="Layer 13"><path class="cls-1" d="M203.736,459.553a6.708,6.708,0,0,1-1.714-4.65,7.306,7.306,0,0,1,1.714-4.993,6.465,6.465,0,0,1,5.14-1.958,6.108,6.108,0,0,1,4.8,1.86,6.926,6.926,0,0,1,1.664,4.8,7.167,7.167,0,0,1-1.713,4.9,6.339,6.339,0,0,1-5.042,1.959A6.17,6.17,0,0,1,203.736,459.553Zm143.081-7.391H300.608v8.811h16.741v57.468H328.9V460.973h16.447Zm-78.172,52.524a55.236,55.236,0,0,1-.735-9.839v-23.1q-.294-.1-2.2-.538t-4.65-.931q-2.742-.488-5.923-.929a44.611,44.611,0,0,0-6.119-.442,22.679,22.679,0,0,0-9.5,1.959,22.177,22.177,0,0,0-7.392,5.385,24.482,24.482,0,0,0-4.8,8.174,30.2,30.2,0,0,0-1.714,10.329,42.955,42.955,0,0,0,1.077,9.986,21.983,21.983,0,0,0,3.329,7.685,15.285,15.285,0,0,0,5.63,4.9,17.428,17.428,0,0,0,7.978,1.714q6.264,0,9.937-2.986a17,17,0,0,0,5.336-8.86,19.383,19.383,0,0,0,.979,5.237,24.234,24.234,0,0,0,1.665,3.769,16.089,16.089,0,0,0,2.35,3.035l8.713-3.524a17.564,17.564,0,0,1-2.35-4.6A42.019,42.019,0,0,1,268.645,504.686Zm-11.9-12.777a30.413,30.413,0,0,1-.832,7.1,23.778,23.778,0,0,1-2.35,6.167,14.922,14.922,0,0,1-3.573,4.357,7,7,0,0,1-4.5,1.665,6.025,6.025,0,0,1-4.21-1.42,8.978,8.978,0,0,1-2.4-3.867,21.456,21.456,0,0,1-1.028-5.58q-.2-3.133-.2-6.56a37.217,37.217,0,0,1,.588-6.853,14.719,14.719,0,0,1,2.056-5.385,10.3,10.3,0,0,1,3.867-3.524,12.991,12.991,0,0,1,6.119-1.273,18.259,18.259,0,0,1,3.525.391q1.956.395,2.936.686Zm-64.026,18.5a12.371,12.371,0,0,1-1.712.294,18.641,18.641,0,0,1-1.91.1,3.447,3.447,0,0,1-2.545-.881,4.379,4.379,0,0,1-.882-3.133V447.364l-11.16,2.056v58.448a11.683,11.683,0,0,0,2.643,7.881q2.643,3.082,8.224,3.084a32.574,32.574,0,0,0,4.21-.245,22.287,22.287,0,0,0,3.23-.637,24.042,24.042,0,0,0,2.839-.88l-1.37-7.049C193.832,510.153,193.311,510.283,192.723,510.414Zm25.943.1a3.388,3.388,0,0,1-.832.1H217a2.58,2.58,0,0,1-2.056-.783,4.8,4.8,0,0,1-.685-3.035V469.686H203.1V507.77a11.558,11.558,0,0,0,2.741,7.979q2.742,3.082,7.931,3.084a20.6,20.6,0,0,0,2.986-.2,13.351,13.351,0,0,0,2.2-.489,7.657,7.657,0,0,0,1.763-.686l-1.175-7.048A4.573,4.573,0,0,1,218.666,510.511ZM148.473,468.9a21.416,21.416,0,0,0-8.371,1.665,16.585,16.585,0,0,0-6.805,5.385v-28.49l-11.16,1.958v69.021H133.3V492.6a16.51,16.51,0,0,1,3.867-10.818,12.537,12.537,0,0,1,3.819-3.083,9.067,9.067,0,0,1,4.161-1.077q3.525,0,4.993,2.4a12.422,12.422,0,0,1,1.468,6.51v31.916h11.161v-32.7q0-7.733-3.378-12.286T148.473,468.9ZM26.39,451.966q-2.253,0-5.286.049t-5.875.049q-2.839,0-5.09.049t-2.937.049v66.279q.783,0,2.545.049t4.161.049q2.4,0,5.287.049t5.923.049q17.523,0,25.748-8.713t8.224-25.063q0-16.349-8.029-24.622T26.39,451.966ZM41.663,503.9q-4.8,6.019-15.077,6.021H21.643q-1.715,0-2.791-.1V460.777q.881,0,2.4-.049t3.769-.049a24.347,24.347,0,0,1,9.937,1.812,17.144,17.144,0,0,1,6.658,5.14,20.741,20.741,0,0,1,3.719,7.978,43.976,43.976,0,0,1,1.127,10.329Q46.461,497.884,41.663,503.9Zm68.09.783a55.236,55.236,0,0,1-.735-9.839v-23.1q-.293-.1-2.2-.538t-4.651-.931q-2.742-.488-5.923-.929a44.6,44.6,0,0,0-6.118-.442,22.681,22.681,0,0,0-9.5,1.959,22.163,22.163,0,0,0-7.391,5.385,24.484,24.484,0,0,0-4.8,8.174,30.2,30.2,0,0,0-1.713,10.329,42.9,42.9,0,0,0,1.077,9.986,21.964,21.964,0,0,0,3.329,7.685,15.282,15.282,0,0,0,5.629,4.9,17.429,17.429,0,0,0,7.979,1.714q6.264,0,9.937-2.986a17,17,0,0,0,5.335-8.86,19.422,19.422,0,0,0,.979,5.237,24.234,24.234,0,0,0,1.665,3.769A16.169,16.169,0,0,0,105,519.224l8.713-3.524a17.657,17.657,0,0,1-2.349-4.6A42.138,42.138,0,0,1,109.753,504.686ZM97.858,491.909a30.467,30.467,0,0,1-.832,7.1,23.814,23.814,0,0,1-2.35,6.167,14.954,14.954,0,0,1-3.573,4.357,7,7,0,0,1-4.5,1.665,6.027,6.027,0,0,1-4.21-1.42,8.988,8.988,0,0,1-2.4-3.867,21.5,21.5,0,0,1-1.028-5.58q-.2-3.133-.2-6.56a37.131,37.131,0,0,1,.588-6.853,14.736,14.736,0,0,1,2.055-5.385,10.3,10.3,0,0,1,3.868-3.524,12.99,12.99,0,0,1,6.118-1.273,18.224,18.224,0,0,1,3.524.391q1.957.395,2.938.686Zm334.966,12.777a55.33,55.33,0,0,1-.735-9.839v-23.1q-.292-.1-2.2-.538t-4.65-.931q-2.742-.488-5.923-.929a44.6,44.6,0,0,0-6.119-.442,22.687,22.687,0,0,0-9.5,1.959,22.183,22.183,0,0,0-7.391,5.385,24.482,24.482,0,0,0-4.8,8.174,30.2,30.2,0,0,0-1.714,10.329,42.9,42.9,0,0,0,1.077,9.986,22,22,0,0,0,3.329,7.685,15.282,15.282,0,0,0,5.629,4.9,17.437,17.437,0,0,0,7.98,1.714q6.264,0,9.937-2.986a17,17,0,0,0,5.335-8.86,19.383,19.383,0,0,0,.979,5.237,24.333,24.333,0,0,0,1.664,3.769,16.172,16.172,0,0,0,2.35,3.035l8.713-3.524a17.625,17.625,0,0,1-2.35-4.6A42.257,42.257,0,0,1,432.824,504.686Zm-11.9-12.777a30.413,30.413,0,0,1-.832,7.1,23.777,23.777,0,0,1-2.349,6.167,14.94,14.94,0,0,1-3.574,4.357,7,7,0,0,1-4.5,1.665,6.027,6.027,0,0,1-4.21-1.42,8.978,8.978,0,0,1-2.4-3.867,21.456,21.456,0,0,1-1.028-5.58q-.2-3.133-.195-6.56a37.221,37.221,0,0,1,.587-6.853,14.737,14.737,0,0,1,2.056-5.385,10.3,10.3,0,0,1,3.867-3.524,13,13,0,0,1,6.119-1.273,18.233,18.233,0,0,1,3.524.391q1.958.395,2.937.686Zm63.439-24.426a13.883,13.883,0,0,1,4.65-5.286,12.591,12.591,0,0,1,7.1-1.909,13.092,13.092,0,0,1,6.021,1.321,17.813,17.813,0,0,1,4.944,3.868l5.973-7.147a23.008,23.008,0,0,0-6.119-4.9,19.28,19.28,0,0,0-9.644-2.153,29.863,29.863,0,0,0-12.776,2.545,24.235,24.235,0,0,0-9.007,7.147,31.2,31.2,0,0,0-5.336,11.014,53.348,53.348,0,0,0-1.762,14.147q0,16.154,6.608,24.524t19.728,8.371a42.19,42.19,0,0,0,7-.539,55.225,55.225,0,0,0,5.483-1.175q2.3-.636,3.573-1.126l1.273-.489-2.742-8.224q-.294.1-1.42.49t-2.838.832q-1.716.44-3.77.832a22.909,22.909,0,0,1-4.308.392,14.264,14.264,0,0,1-7.783-1.958,13.951,13.951,0,0,1-4.895-5.385,25.674,25.674,0,0,1-2.545-7.93,60.213,60.213,0,0,1-.735-9.692,56.414,56.414,0,0,1,.784-9.692A26.917,26.917,0,0,1,484.368,467.483Zm68.335,7.686q-5.091-6.657-16.349-6.658a22.526,22.526,0,0,0-9.791,2.007,19.743,19.743,0,0,0-7,5.482,23.3,23.3,0,0,0-4.16,8.224,37.084,37.084,0,0,0-1.371,10.329,40.369,40.369,0,0,0,1.224,10.378,20.488,20.488,0,0,0,3.867,7.832,17.061,17.061,0,0,0,6.706,4.944,24.741,24.741,0,0,0,9.643,1.714,22.508,22.508,0,0,0,9.79-2.008,19.713,19.713,0,0,0,7-5.482,23.265,23.265,0,0,0,4.16-8.224,36.768,36.768,0,0,0,1.371-10.231Q557.794,481.827,552.7,475.169Zm-7.343,25.846a19.017,19.017,0,0,1-1.419,5.335,8.453,8.453,0,0,1-2.839,3.574,7.914,7.914,0,0,1-4.651,1.273,8.91,8.91,0,0,1-5.139-1.371,9.5,9.5,0,0,1-3.182-3.769,18.422,18.422,0,0,1-1.616-5.63,50.852,50.852,0,0,1-.44-6.853,52.39,52.39,0,0,1,.392-6.609,19.053,19.053,0,0,1,1.419-5.384,8.461,8.461,0,0,1,2.839-3.573,7.908,7.908,0,0,1,4.65-1.273,8.925,8.925,0,0,1,5.14,1.371,9.458,9.458,0,0,1,3.182,3.818,19.019,19.019,0,0,1,1.616,5.678,54.31,54.31,0,0,1,.048,13.413ZM375.846,494.7a18,18,0,0,0,5.63-5.58,12.607,12.607,0,0,0,1.958-6.707,15.856,15.856,0,0,0-.93-5.482,11.408,11.408,0,0,0-2.888-4.406,13.853,13.853,0,0,0-5.043-2.937,22.844,22.844,0,0,0-7.489-1.077,24.942,24.942,0,0,0-9.3,1.714,20.627,20.627,0,0,0-7.488,5.091,23.881,23.881,0,0,0-4.994,8.37,33.8,33.8,0,0,0-1.811,11.552,38,38,0,0,0,1.175,9.791,19.894,19.894,0,0,0,3.72,7.538,16.716,16.716,0,0,0,6.56,4.846,24.653,24.653,0,0,0,9.692,1.714,34.967,34.967,0,0,0,7.049-.686,47.047,47.047,0,0,0,5.874-1.566,41.834,41.834,0,0,0,5.482-2.252l-2.937-6.951q-2.351.979-4.8,1.763a37.484,37.484,0,0,1-4.5,1.174,23.467,23.467,0,0,1-4.6.49,11.93,11.93,0,0,1-4.9-.882,8.446,8.446,0,0,1-3.182-2.4,10.671,10.671,0,0,1-1.86-3.524,24.525,24.525,0,0,1-.93-4.259,46.84,46.84,0,0,0,11.65-1.518A31.056,31.056,0,0,0,375.846,494.7Zm-20.8-1.713a41.141,41.141,0,0,1,.637-6.022,18.363,18.363,0,0,1,1.81-5.384,11.26,11.26,0,0,1,3.378-3.916,8.9,8.9,0,0,1,5.337-1.517,5.87,5.87,0,0,1,4.4,1.713,6.263,6.263,0,0,1,1.664,4.552,7.5,7.5,0,0,1-.93,3.525,9.955,9.955,0,0,1-2.986,3.279,18.035,18.035,0,0,1-5.335,2.546A31.294,31.294,0,0,1,355.042,492.987Z"></path><path class="cls-1" d="M273.941,162.1s3.144-2.687,6.019-5.562a24.955,24.955,0,0,0,7.359-16.1c.685-10.313-7.881-21.265-13.378-27.169-5.5,5.9-14.064,16.856-13.378,27.169a24.955,24.955,0,0,0,7.359,16.1C270.8,159.409,273.941,162.1,273.941,162.1Z"></path><path class="cls-1" d="M273.941,309.4s-3.144,2.688-6.019,5.563a24.951,24.951,0,0,0-7.359,16.1c-.686,10.313,7.881,21.266,13.378,27.169,5.5-5.9,14.063-16.856,13.378-27.169a24.951,24.951,0,0,0-7.359-16.1C277.085,312.09,273.941,309.4,273.941,309.4Z"></path><path class="cls-1" d="M210.156,199.2s-.756-4.066-1.808-7.994a24.951,24.951,0,0,0-10.26-14.42c-8.589-5.751-22.357-3.808-30.218-2,2.364,7.712,7.566,20.607,16.84,25.17a24.951,24.951,0,0,0,17.619,1.674C206.256,200.577,210.156,199.2,210.156,199.2Z"></path><path class="cls-1" d="M337.726,272.3s.756,4.066,1.808,7.994a24.957,24.957,0,0,0,10.26,14.421c8.588,5.75,22.356,3.808,30.218,2-2.364-7.713-7.566-20.608-16.84-25.17a24.951,24.951,0,0,0-17.619-1.675C341.625,270.921,337.726,272.3,337.726,272.3Z"></path><path class="cls-1" d="M210.156,272.3s-3.9-1.379-7.827-2.431a24.951,24.951,0,0,0-17.619,1.675c-9.274,4.562-14.476,17.457-16.84,25.17,7.861,1.809,21.629,3.751,30.218-2a24.957,24.957,0,0,0,10.26-14.421C209.4,276.366,210.156,272.3,210.156,272.3Z"></path><path class="cls-1" d="M337.726,199.2s3.9,1.379,7.827,2.431a24.951,24.951,0,0,0,17.619-1.674c9.274-4.563,14.476-17.458,16.84-25.17-7.862-1.809-21.63-3.752-30.218,2a24.951,24.951,0,0,0-10.26,14.42C338.482,195.132,337.726,199.2,337.726,199.2Z"></path><path class="cls-1" d="M241.652,179.824s1.891-5.349,3.335-10.737a34.226,34.226,0,0,0-2.3-24.168c-6.259-12.722-23.947-19.858-34.527-23.1-2.481,10.784-5.146,29.671,2.742,41.452a34.226,34.226,0,0,0,19.782,14.073C236.074,178.787,241.652,179.824,241.652,179.824Z"></path><path class="cls-1" d="M306.229,291.675s-1.891,5.349-3.334,10.736a34.226,34.226,0,0,0,2.3,24.168c6.259,12.722,23.947,19.858,34.527,23.1,2.481-10.784,5.146-29.67-2.742-41.451A34.227,34.227,0,0,0,317.2,294.155C311.807,292.711,306.229,291.675,306.229,291.675Z"></path><path class="cls-1" d="M209.364,235.749s-3.687-4.312-7.631-8.256A34.232,34.232,0,0,0,179.654,217.4c-14.147-.94-29.171,10.81-37.269,18.351,8.1,7.541,23.122,19.292,37.269,18.351a34.222,34.222,0,0,0,22.079-10.095C205.677,240.061,209.364,235.749,209.364,235.749Z"></path><path class="cls-1" d="M338.518,235.749s3.687,4.312,7.631,8.256A34.222,34.222,0,0,0,368.228,254.1c14.147.941,29.17-10.81,37.269-18.351-8.1-7.541-23.122-19.291-37.269-18.351a34.232,34.232,0,0,0-22.079,10.095C342.205,231.437,338.518,235.749,338.518,235.749Z"></path><path class="cls-1" d="M241.652,291.675s-5.578,1.036-10.965,2.48a34.227,34.227,0,0,0-19.782,14.074c-7.888,11.781-5.223,30.667-2.742,41.451,10.58-3.243,28.268-10.379,34.527-23.1a34.226,34.226,0,0,0,2.3-24.168C243.543,297.024,241.652,291.675,241.652,291.675Z"></path><path class="cls-1" d="M306.229,179.824s5.578-1.037,10.966-2.481a34.226,34.226,0,0,0,19.782-14.073c7.888-11.781,5.223-30.668,2.742-41.452-10.58,3.243-28.268,10.379-34.527,23.1a34.226,34.226,0,0,0-2.3,24.168C304.338,174.475,306.229,179.824,306.229,179.824Z"></path><path class="cls-1" d="M263.5,196.688s1.12-1.631,2.092-3.316A11.935,11.935,0,0,0,267,185.025c-.96-4.849-6.274-8.849-9.544-10.9-1.809,3.408-4.411,9.529-2.817,14.209a11.934,11.934,0,0,0,5.392,6.525C261.712,195.835,263.5,196.688,263.5,196.688Z"></path><path class="cls-1" d="M284.384,274.811s-1.119,1.631-2.092,3.315a11.935,11.935,0,0,0-1.407,8.347c.96,4.85,6.273,8.849,9.544,10.9,1.809-3.408,4.411-9.528,2.817-14.208a11.935,11.935,0,0,0-5.392-6.525C286.17,275.663,284.384,274.811,284.384,274.811Z"></path><path class="cls-1" d="M234.917,225.447s-.852-1.785-1.825-3.469a11.933,11.933,0,0,0-6.525-5.393c-4.68-1.593-10.8,1.009-14.208,2.818,2.047,3.27,6.046,8.584,10.9,9.544a11.936,11.936,0,0,0,8.347-1.408C233.286,226.567,234.917,225.447,234.917,225.447Z"></path><path class="cls-1" d="M312.965,246.051s.852,1.785,1.825,3.47a11.932,11.932,0,0,0,6.525,5.392c4.679,1.593,10.8-1.008,14.208-2.817-2.047-3.271-6.047-8.584-10.9-9.544a11.934,11.934,0,0,0-8.347,1.407C314.6,244.932,312.965,246.051,312.965,246.051Z"></path><path class="cls-1" d="M245.316,264.194s-1.972-.154-3.917-.154A11.933,11.933,0,0,0,233.467,267c-3.72,3.256-4.527,9.857-4.664,13.713,3.856-.137,10.457-.944,13.713-4.664a11.933,11.933,0,0,0,2.955-7.933C245.471,266.166,245.316,264.194,245.316,264.194Z"></path><path class="cls-1" d="M302.565,207.3s1.972.154,3.917.154a11.938,11.938,0,0,0,7.933-2.954c3.72-3.256,4.527-9.858,4.664-13.714-3.856.138-10.457.945-13.713,4.665a11.931,11.931,0,0,0-2.955,7.932C302.411,205.332,302.565,207.3,302.565,207.3Z"></path><path class="cls-1" d="M252.1,213.909s.212-2.706.212-5.373a16.375,16.375,0,0,0-4.053-10.882c-4.467-5.1-13.522-6.209-18.811-6.4.188,5.289,1.295,14.345,6.4,18.811a16.372,16.372,0,0,0,10.881,4.053C249.4,214.12,252.1,213.909,252.1,213.909Z"></path><path class="cls-1" d="M295.781,257.59s-.211,2.705-.211,5.373a16.372,16.372,0,0,0,4.053,10.881c4.466,5.1,13.522,6.21,18.811,6.4-.189-5.289-1.3-14.344-6.4-18.811a16.375,16.375,0,0,0-10.882-4.053C298.487,257.378,295.781,257.59,295.781,257.59Z"></path><path class="cls-1" d="M244.106,243.743s-2.237-1.536-4.547-2.869a16.371,16.371,0,0,0-11.45-1.931c-6.653,1.317-12.139,8.6-14.947,13.092,4.675,2.481,13.071,6.05,19.49,3.864a16.366,16.366,0,0,0,8.951-7.4C242.937,246.192,244.106,243.743,244.106,243.743Z"></path><path class="cls-1" d="M303.775,227.755s2.238,1.536,4.548,2.87a16.37,16.37,0,0,0,11.45,1.93c6.652-1.316,12.139-8.605,14.947-13.091-4.675-2.482-13.071-6.051-19.49-3.865a16.37,16.37,0,0,0-8.951,7.4C304.945,225.306,303.775,227.755,303.775,227.755Z"></path><path class="cls-1" d="M265.947,265.584s-2.449,1.169-4.759,2.5a16.37,16.37,0,0,0-7.4,8.951c-2.186,6.419,1.383,14.815,3.864,19.49,4.487-2.808,11.775-8.294,13.092-14.947a16.371,16.371,0,0,0-1.931-11.45C267.483,267.821,265.947,265.584,265.947,265.584Z"></path><path class="cls-1" d="M281.935,205.915s2.449-1.17,4.759-2.5a16.37,16.37,0,0,0,7.4-8.951c2.186-6.419-1.383-14.815-3.865-19.49-4.486,2.808-11.774,8.295-13.091,14.947a16.37,16.37,0,0,0,1.93,11.45C280.4,203.677,281.935,205.915,281.935,205.915Z"></path><path class="cls-2" d="M409.816,421.206c-18.452.016-95.408.027-96.189.027.076-.112.147-.211.222-.322a188.236,188.236,0,0,0,76.134-35.455c4.09,5.65,9.409,10.54,14.137,14.858,6.23,5.69,11.434,9.533,11.422,14.536C415.53,420.26,411.739,421.244,409.816,421.206ZM561.632,137.068a101.818,101.818,0,0,0-6.168-28.575,107.5,107.5,0,0,0-5.941-13.138,33.979,33.979,0,0,1-2.066-3.762c.456,1.018,5.469-3.459,5.442-4.982-.059-3.248-4.817-4.921-7.21-5.956-9.819-4.244-18.457-10.7-27.693-16-23.548-13.514-55.71-13.049-76.155,6.3-12.25,11.6-20.487,30.57-17.259,47.544.226,1.2.515,2.384.851,3.557a188.5,188.5,0,0,1,12.9,19.561c.143.115.27.244.415.357,8.393,6.512,20.246,9.665,30.3,5.234a26.435,26.435,0,0,0,13.821-14.343,23.8,23.8,0,0,0-.506-19.131c-.212-.429-.47-.843-.723-1.257a19.318,19.318,0,0,0-11.695-8.745,16.945,16.945,0,0,0-14.967,3.323,16.6,16.6,0,0,0-4.66,6.571,13.967,13.967,0,0,1-.111-2.126c-.009-.2.022-.4.028-.606s.032-.4.053-.606l.028-.3.05-.3s.044-.3.075-.484l.042-.208a32.006,32.006,0,0,1,4.79-12.171,29.947,29.947,0,0,1,21.1-13.053,32.533,32.533,0,0,1,6.474-.226l1.64.151c22.365,2.067,38.4,19.014,43.694,40.08,9.351,37.2-6.813,80.735-25.627,112.507a214,214,0,0,1-43.933,52.6c-1.248,1.084-2.535,2.119-3.808,3.172A188.21,188.21,0,0,1,417.1,359.756a252.316,252.316,0,0,0,65.891-43.609,249.485,249.485,0,0,0,49.459-62.772c12.21-22.041,21.545-45.9,26.2-70.714C561.349,168.262,562.851,152.417,561.632,137.068ZM116.874,341.626c.805,1.29,1.6,2.58,2.436,3.867-38.331-18.845-67.553-67.1-70.629-121.944-1.394-24.86-.456-66.407-25.976-102.793C12.667,106.443,4.687,104.89,1.423,97.855c-4.017-8.659.9-16.189,9.39-15.723,7.162.392,23.394,3.425,35.2,3.814A22.2,22.2,0,0,1,61.82,93.053c8.138,8.415,13.432,18.455,17.737,29.227,4.926,12.326,13.828,22.217,26.25,25.426-1.278,2.718-2.478,5.43-3.64,8.139A189.7,189.7,0,0,0,116.874,341.626Zm26.887,58.688c4.728-4.318,10.047-9.208,14.137-14.858a188.236,188.236,0,0,0,76.134,35.455c.075.111.146.21.222.322-.781,0-77.737-.011-96.189-.027-1.923.038-5.714-.946-5.726-6.356C132.327,409.847,137.531,406,143.761,400.314Zm52.6-352.464a13.472,13.472,0,0,1,7.178-6.238c16.681-6.748,33.559-12.806,51.721-14.148,1.1-.081,1.947-.276,1.753-1.726-1.293-9.666,3.579-16.271,10.937-21.486A24.583,24.583,0,0,1,283.164.016c13.489.039,23.592,6.73,27.73,18a16.426,16.426,0,0,1,.763,10.484c-.546,1.86.042,2.454,1.777,2.786a180.437,180.437,0,0,1,27.7,7.418c8.189,2.971,16.431,5.836,23.864,10.512,2.926,1.841,5.648,3.919,7.113,7.226a8.9,8.9,0,0,1-3.24,11.318,5.385,5.385,0,0,1-5.923.276,186.379,186.379,0,0,0-35.667-14.593,190.447,190.447,0,0,0-46.166-7.505A187.464,187.464,0,0,0,203.3,59.344a4.168,4.168,0,0,1-4.094-.384A8.248,8.248,0,0,1,196.356,47.85Z"></path><path class="cls-1" d="M290.035,211.626s-.9.1-1.773.268a5.455,5.455,0,0,0-3.309,2.01c-1.392,1.783-1.186,4.819-.916,6.563,1.721-.394,4.617-1.325,5.76-3.276a5.461,5.461,0,0,0,.645-3.818C290.274,212.5,290.035,211.626,290.035,211.626Z"></path><path class="cls-1" d="M257.846,259.872s.9-.1,1.774-.267a5.459,5.459,0,0,0,3.309-2.011c1.391-1.783,1.186-4.818.916-6.562-1.721.393-4.617,1.324-5.76,3.276a5.459,5.459,0,0,0-.645,3.818C257.607,259,257.846,259.872,257.846,259.872Z"></path><path class="cls-1" d="M261.5,209.528s-.363.83-.655,1.67a5.456,5.456,0,0,0,.086,3.871c.849,2.1,3.58,3.436,5.226,4.074.519-1.686,1.161-4.66.043-6.626a5.458,5.458,0,0,0-2.985-2.467C262.375,209.758,261.5,209.528,261.5,209.528Z"></path><path class="cls-1" d="M286.382,261.97s.363-.829.655-1.67a5.462,5.462,0,0,0-.086-3.871c-.849-2.1-3.581-3.436-5.226-4.074-.52,1.687-1.162,4.661-.043,6.626a5.461,5.461,0,0,0,2.984,2.468C285.507,261.741,286.382,261.97,286.382,261.97Z"></path><path class="cls-1" d="M244.86,233.662s.536.729,1.118,1.4a5.457,5.457,0,0,0,3.4,1.861c2.24.313,4.766-1.383,6.141-2.489-1.2-1.293-3.455-3.336-5.717-3.35a5.458,5.458,0,0,0-3.629,1.351C245.5,233.019,244.86,233.662,244.86,233.662Z"></path><path class="cls-1" d="M303.022,237.836s-.537-.728-1.118-1.4a5.464,5.464,0,0,0-3.4-1.862c-2.24-.313-4.766,1.383-6.141,2.489,1.2,1.293,3.455,3.336,5.717,3.35a5.461,5.461,0,0,0,3.629-1.35C302.386,238.48,303.022,237.836,303.022,237.836Z"></path><path class="cls-1" d="M285.392,230.214s.605.264,1.217.477a3.981,3.981,0,0,0,2.823-.063c1.528-.619,2.5-2.61,2.97-3.81-1.23-.378-3.4-.846-4.831-.031a3.984,3.984,0,0,0-1.8,2.176C285.56,229.575,285.392,230.214,285.392,230.214Z"></path><path class="cls-1" d="M262.489,241.285s-.6-.265-1.217-.477a3.985,3.985,0,0,0-2.822.062c-1.528.619-2.5,2.61-2.97,3.81,1.23.379,3.4.847,4.83.031a3.981,3.981,0,0,0,1.8-2.175C262.322,241.923,262.489,241.285,262.489,241.285Z"></path><path class="cls-1" d="M274.814,223.082s.531-.391,1.021-.815a3.979,3.979,0,0,0,1.357-2.476c.228-1.632-1.008-3.474-1.814-4.477-.943.876-2.432,2.52-2.442,4.168a3.983,3.983,0,0,0,.984,2.646C274.345,222.618,274.814,223.082,274.814,223.082Z"></path><path class="cls-1" d="M273.068,248.416s-.531.391-1.022.815a3.982,3.982,0,0,0-1.356,2.476c-.229,1.633,1.007,3.474,1.814,4.477.943-.876,2.432-2.519,2.442-4.168a3.976,3.976,0,0,0-.985-2.645C273.537,248.88,273.068,248.416,273.068,248.416Z"></path><path class="cls-1" d="M263.457,228.591s-.073-.655-.195-1.292a3.98,3.98,0,0,0-1.465-2.413c-1.3-1.014-3.513-.864-4.785-.668.287,1.255.966,3.366,2.389,4.2a3.974,3.974,0,0,0,2.783.47C262.821,228.765,263.457,228.591,263.457,228.591Z"></path><path class="cls-1" d="M284.424,242.907s.074.656.2,1.293a3.976,3.976,0,0,0,1.465,2.413c1.3,1.014,3.513.864,4.784.667-.287-1.254-.965-3.366-2.388-4.2a3.98,3.98,0,0,0-2.783-.47C285.061,242.733,284.424,242.907,284.424,242.907Z"></path><path class="cls-1" d="M278.006,236.162s.205.3.428.573a2.177,2.177,0,0,0,1.33.785c.889.153,4.032-.14,4.748-.679-.589-.676-3.6-1.608-4.5-1.643a2.179,2.179,0,0,0-1.464.492C278.268,235.913,278.006,236.162,278.006,236.162Z"></path><path class="cls-1" d="M269.875,235.337s-.2-.3-.428-.573a2.179,2.179,0,0,0-1.329-.786c-.889-.153-4.032.141-4.748.68.588.676,3.6,1.608,4.5,1.642a2.175,2.175,0,0,0,1.464-.492C269.613,235.585,269.875,235.337,269.875,235.337Z"></path><path class="cls-1" d="M276.319,232.448s.36-.029.71-.084a2.181,2.181,0,0,0,1.345-.759c.577-.693,1.891-3.559,1.782-4.448-.879.172-3.191,2.313-3.671,3.076a2.174,2.174,0,0,0-.306,1.513C276.235,232.1,276.319,232.448,276.319,232.448Z"></path><path class="cls-1" d="M271.563,239.051s-.36.028-.71.084a2.172,2.172,0,0,0-1.345.759c-.577.693-1.891,3.558-1.782,4.447.879-.171,3.19-2.312,3.671-3.075a2.182,2.182,0,0,0,.306-1.514C271.647,239.4,271.563,239.051,271.563,239.051Z"></path><path class="cls-1" d="M272.31,232.011s.155-.326.282-.657a2.172,2.172,0,0,0,.015-1.544c-.311-.847-2.125-3.425-2.949-3.775-.292.847.4,3.927.817,4.725a2.175,2.175,0,0,0,1.158,1.021C271.964,231.908,272.31,232.011,272.31,232.011Z"></path><path class="cls-1" d="M275.572,239.488s-.155.325-.283.657a2.184,2.184,0,0,0-.015,1.544c.312.846,2.126,3.424,2.95,3.775.291-.848-.4-3.927-.817-4.725a2.181,2.181,0,0,0-1.158-1.022C275.918,239.59,275.572,239.488,275.572,239.488Z"></path></g></g></svg>