<svg xmlns="http://www.w3.org/2000/svg" viewBox="0 0 562.06 421.206">
<defs><style>.cls-1{fill:#9c3;}.cls-2{fill:#502e87;}</style></defs>
<g id="Layer_2" data-name="Layer 2"><g id="Layer_13" data-name="Layer 13">
<path class="cls-1" d="M273.941,162.1s3.144-2.687,6.019-5.562a24.955,24.955,0,0,0,7.359-16.1c.685-10.313-7.881-21.265-13.378-27.169-5.5,5.9-14.064,16.856-13.378,27.169a24.955,24.955,0,0,0,7.359,16.1C270.8,159.409,273.941,162.1,273.941,162.1Z"></path>
<path class="cls-1" d="M273.941,309.4s-3.144,2.688-6.019,5.563a24.951,24.951,0,0,0-7.359,16.1c-.686,10.313,7.881,21.266,13.378,27.169,5.5-5.9,14.063-16.856,13.378-27.169a24.951,24.951,0,0,0-7.359-16.1C277.085,312.09,273.941,309.4,273.941,309.4Z"></path>
<path class="cls-1" d="M210.156,199.2s-.756-4.066-1.808-7.994a24.951,24.951,0,0,0-10.26-14.42c-8.589-5.751-22.357-3.808-30.218-2,2.364,7.712,7.566,20.607,16.84,25.17a24.951,24.951,0,0,0,17.619,1.674C206.256,200.577,210.156,199.2,210.156,199.2Z"></path>
<path class="cls-1" d="M337.726,272.3s.756,4.066,1.808,7.994a24.957,24.957,0,0,0,10.26,14.421c8.588,5.75,22.356,3.808,30.218,2-2.364-7.713-7.566-20.608-16.84-25.17a24.951,24.951,0,0,0-17.619-1.675C341.625,270.921,337.726,272.3,337.726,272.3Z"></path>
<path class="cls-1" d="M210.156,272.3s-3.9-1.379-7.827-2.431a24.951,24.951,0,0,0-17.619,1.675c-9.274,4.562-14.476,17.457-16.84,25.17,7.861,1.809,21.629,3.751,30.218-2a24.957,24.957,0,0,0,10.26-14.421C209.4,276.366,210.156,272.3,210.156,272.3Z"></path>

<path class="cls-1" d="M337.726,199.2s3.9,1.379,7.827,2.431a24.951,24.951,0,0,0,17.619-1.674c9.274-4.563,14.476-17.458,16.84-25.17-7.862-1.809-21.63-3.752-30.218,2a24.951,24.951,0,0,0-10.26,14.42C338.482,195.132,337.726,199.2,337.726,199.2Z"></path>
<path class="cls-1" d="M241.652,179.824s1.891-5.349,3.335-10.737a34.226,34.226,0,0,0-2.3-24.168c-6.259-12.722-23.947-19.858-34.527-23.1-2.481,10.784-5.146,29.671,2.742,41.452a34.226,34.226,0,0,0,19.782,14.073C236.074,178.787,241.652,179.824,241.652,179.824Z"></path>
<path class="cls-1" d="M306.229,291.675s-1.891,5.349-3.334,10.736a34.226,34.226,0,0,0,2.3,24.168c6.259,12.722,23.947,19.858,34.527,23.1,2.481-10.784,5.146-29.67-2.742-41.451A34.227,34.227,0,0,0,317.2,294.155C311.807,292.711,306.229,291.675,306.229,291.675Z"></path>
<path class="cls-1" d="M209.364,235.749s-3.687-4.312-7.631-8.256A34.232,34.232,0,0,0,179.654,217.4c-14.147-.94-29.171,10.81-37.269,18.351,8.1,7.541,23.122,19.292,37.269,18.351a34.222,34.222,0,0,0,22.079-10.095C205.677,240.061,209.364,235.749,209.364,235.749Z"></path>
<path class="cls-1" d="M338.518,235.749s3.687,4.312,7.631,8.256A34.222,34.222,0,0,0,368.228,254.1c14.147.941,29.17-10.81,37.269-18.351-8.1-7.541-23.122-19.291-37.269-18.351a34.232,34.232,0,0,0-22.079,10.095C342.205,231.437,338.518,235.749,338.518,235.749Z"></path>
<path class="cls-1" d="M241.652,291.675s-5.578,1.036-10.965,2.48a34.227,34.227,0,0,0-19.782,14.074c-7.888,11.781-5.223,30.667-2.742,41.451,10.58-3.243,28.268-10.379,34.527-23.1a34.226,34.226,0,0,0,2.3-24.168C243.543,297.024,241.652,291.675,241.652,291.675Z"></path>
<path class="cls-1" d="M306.229,179.824s5.578-1.037,10.966-2.481a34.226,34.226,0,0,0,19.782-14.073c7.888-11.781,5.223-30.668,2.742-41.452-10.58,3.243-28.268,10.379-34.527,23.1a34.226,34.226,0,0,0-2.3,24.168C304.338,174.475,306.229,179.824,306.229,179.824Z"></path>
<path class="cls-1" d="M263.5,196.688s1.12-1.631,2.092-3.316A11.935,11.935,0,0,0,267,185.025c-.96-4.849-6.274-8.849-9.544-10.9-1.809,3.408-4.411,9.529-2.817,14.209a11.934,11.934,0,0,0,5.392,6.525C261.712,195.835,263.5,196.688,263.5,196.688Z"></path>
<path class="cls-1" d="M284.384,274.811s-1.119,1.631-2.092,3.315a11.935,11.935,0,0,0-1.407,8.347c.96,4.85,6.273,8.849,9.544,10.9,1.809-3.408,4.411-9.528,2.817-14.208a11.935,11.935,0,0,0-5.392-6.525C286.17,275.663,284.384,274.811,284.384,274.811Z"></path>
<path class="cls-1" d="M234.917,225.447s-.852-1.785-1.825-3.469a11.933,11.933,0,0,0-6.525-5.393c-4.68-1.593-10.8,1.009-14.208,2.818,2.047,3.27,6.046,8.584,10.9,9.544a11.936,11.936,0,0,0,8.347-1.408C233.286,226.567,234.917,225.447,234.917,225.447Z"></path>
<path class="cls-1" d="M312.965,246.051s.852,1.785,1.825,3.47a11.932,11.932,0,0,0,6.525,5.392c4.679,1.593,10.8-1.008,14.208-2.817-2.047-3.271-6.047-8.584-10.9-9.544a11.934,11.934,0,0,0-8.347,1.407C314.6,244.932,312.965,246.051,312.965,246.051Z"></path>
<path class="cls-1" d="M245.316,264.194s-1.972-.154-3.917-.154A11.933,11.933,0,0,0,233.467,267c-3.72,3.256-4.527,9.857-4.664,13.713,3.856-.137,10.457-.944,13.713-4.664a11.933,11.933,0,0,0,2.955-7.933C245.471,266.166,245.316,264.194,245.316,264.194Z"></path>
<path class="cls-1" d="M302.565,207.3s1.972.154,3.917.154a11.938,11.938,0,0,0,7.933-2.954c3.72-3.256,4.527-9.858,4.664-13.714-3.856.138-10.457.945-13.713,4.665a11.931,11.931,0,0,0-2.955,7.932C302.411,205.332,302.565,207.3,302.565,207.3Z"></path>
<path class="cls-1" d="M252.1,213.909s.212-2.706.212-5.373a16.375,16.375,0,0,0-4.053-10.882c-4.467-5.1-13.522-6.209-18.811-6.4.188,5.289,1.295,14.345,6.4,18.811a16.372,16.372,0,0,0,10.881,4.053C249.4,214.12,252.1,213.909,252.1,213.909Z"></path>
<path class="cls-1" d="M295.781,257.59s-.211,2.705-.211,5.373a16.372,16.372,0,0,0,4.053,10.881c4.466,5.1,13.522,6.21,18.811,6.4-.189-5.289-1.3-14.344-6.4-18.811a16.375,16.375,0,0,0-10.882-4.053C298.487,257.378,295.781,257.59,295.781,257.59Z"></path>
<path class="cls-1" d="M244.106,243.743s-2.237-1.536-4.547-2.869a16.371,16.371,0,0,0-11.45-1.931c-6.653,1.317-12.139,8.6-14.947,13.092,4.675,2.481,13.071,6.05,19.49,3.864a16.366,16.366,0,0,0,8.951-7.4C242.937,246.192,244.106,243.743,244.106,243.743Z"></path>
<path class="cls-1" d="M303.775,227.755s2.238,1.536,4.548,2.87a16.37,16.37,0,0,0,11.45,1.93c6.652-1.316,12.139-8.605,14.947-13.091-4.675-2.482-13.071-6.051-19.49-3.865a16.37,16.37,0,0,0-8.951,7.4C304.945,225.306,303.775,227.755,303.775,227.755Z"></path>
<path class="cls-1" d="M265.947,265.584s-2.449,1.169-4.759,2.5a16.37,16.37,0,0,0-7.4,8.951c-2.186,6.419,1.383,14.815,3.864,19.49,4.487-2.808,11.775-8.294,13.092-14.947a16.371,16.371,0,0,0-1.931-11.45C267.483,267.821,265.947,265.584,265.947,265.584Z"></path>
<path class="cls-1" d="M281.935,205.915s2.449-1.17,4.759-2.5a16.37,16.37,0,0,0,7.4-8.951c2.186-6.419-1.383-14.815-3.865-19.49-4.486,2.808-11.774,8.295-13.091,14.947a16.37,16.37,0,0,0,1.93,11.45C280.4,203.677,281.935,205.915,281.935,205.915Z"></path>

<path class="cls-2" d="M409.816,421.206c-18.452.016-95.408.027-96.189.027.076-.112.147-.211.222-.322a188.236,188.236,0,0,0,76.134-35.455c4.09,5.65,9.409,10.54,14.137,14.858,6.23,5.69,11.434,9.533,11.422,14.536C415.53,420.26,411.739,421.244,409.816,421.206ZM561.632,137.068a101.818,101.818,0,0,0-6.168-28.575,107.5,107.5,0,0,0-5.941-13.138,33.979,33.979,0,0,1-2.066-3.762c.456,1.018,5.469-3.459,5.442-4.982-.059-3.248-4.817-4.921-7.21-5.956-9.819-4.244-18.457-10.7-27.693-16-23.548-13.514-55.71-13.049-76.155,6.3-12.25,11.6-20.487,30.57-17.259,47.544.226,1.2.515,2.384.851,3.557a188.5,188.5,0,0,1,12.9,19.561c.143.115.27.244.415.357,8.393,6.512,20.246,9.665,30.3,5.234a26.435,26.435,0,0,0,13.821-14.343,23.8,23.8,0,0,0-.506-19.131c-.212-.429-.47-.843-.723-1.257a19.318,19.318,0,0,0-11.695-8.745,16.945,16.945,0,0,0-14.967,3.323,16.6,16.6,0,0,0-4.66,6.571,13.967,13.967,0,0,1-.111-2.126c-.009-.2.022-.4.028-.606s.032-.4.053-.606l.028-.3.05-.3s.044-.3.075-.484l.042-.208a32.006,32.006,0,0,1,4.79-12.171,29.947,29.947,0,0,1,21.1-13.053,32.533,32.533,0,0,1,6.474-.226l1.64.151c22.365,2.067,38.4,19.014,43.694,40.08,9.351,37.2-6.813,80.735-25.627,112.507a214,214,0,0,1-43.933,52.6c-1.248,1.084-2.535,2.119-3.808,3.172A188.21,188.21,0,0,1,417.1,359.756a252.316,252.316,0,0,0,65.891-43.609,249.485,249.485,0,0,0,49.459-62.772c12.21-22.041,21.545-45.9,26.2-70.714C561.349,168.262,562.851,152.417,561.632,137.068ZM116.874,341.626c.805,1.29,1.6,2.58,2.436,3.867-38.331-18.845-67.553-67.1-70.629-121.944-1.394-24.86-.456-66.407-25.976-102.793C12.667,106.443,4.687,104.89,1.423,97.855c-4.017-8.659.9-16.189,9.39-15.723,7.162.392,23.394,3.425,35.2,3.814A22.2,22.2,0,0,1,61.82,93.053c8.138,8.415,13.432,18.455,17.737,29.227,4.926,12.326,13.828,22.217,26.25,25.426-1.278,2.718-2.478,5.43-3.64,8.139A189.7,189.7,0,0,0,116.874,341.626Zm26.887,58.688c4.728-4.318,10.047-9.208,14.137-14.858a188.236,188.236,0,0,0,76.134,35.455c.075.111.146.21.222.322-.781,0-77.737-.011-96.189-.027-1.923.038-5.714-.946-5.726-6.356C132.327,409.847,137.531,406,143.761,400.314Zm52.6-352.464a13.472,13.472,0,0,1,7.178-6.238c16.681-6.748,33.559-12.806,51.721-14.148,1.1-.081,1.947-.276,1.753-1.726-1.293-9.666,3.579-16.271,10.937-21.486A24.583,24.583,0,0,1,283.164.016c13.489.039,23.592,6.73,27.73,18a16.426,16.426,0,0,1,.763,10.484c-.546,1.86.042,2.454,1.777,2.786a180.437,180.437,0,0,1,27.7,7.418c8.189,2.971,16.431,5.836,23.864,10.512,2.926,1.841,5.648,3.919,7.113,7.226a8.9,8.9,0,0,1-3.24,11.318,5.385,5.385,0,0,1-5.923.276,186.379,186.379,0,0,0-35.667-14.593,190.447,190.447,0,0,0-46.166-7.505A187.464,187.464,0,0,0,203.3,59.344a4.168,4.168,0,0,1-4.094-.384A8.248,8.248,0,0,1,196.356,47.85Z"></path>

<path class="cls-1" d="M290.035,211.626s-.9.1-1.773.268a5.455,5.455,0,0,0-3.309,2.01c-1.392,1.783-1.186,4.819-.916,6.563,1.721-.394,4.617-1.325,5.76-3.276a5.461,5.461,0,0,0,.645-3.818C290.274,212.5,290.035,211.626,290.035,211.626Z"></path>
<path class="cls-1" d="M257.846,259.872s.9-.1,1.774-.267a5.459,5.459,0,0,0,3.309-2.011c1.391-1.783,1.186-4.818.916-6.562-1.721.393-4.617,1.324-5.76,3.276a5.459,5.459,0,0,0-.645,3.818C257.607,259,257.846,259.872,257.846,259.872Z"></path>
<path class="cls-1" d="M261.5,209.528s-.363.83-.655,1.67a5.456,5.456,0,0,0,.086,3.871c.849,2.1,3.58,3.436,5.226,4.074.519-1.686,1.161-4.66.043-6.626a5.458,5.458,0,0,0-2.985-2.467C262.375,209.758,261.5,209.528,261.5,209.528Z"></path>
<path class="cls-1" d="M286.382,261.97s.363-.829.655-1.67a5.462,5.462,0,0,0-.086-3.871c-.849-2.1-3.581-3.436-5.226-4.074-.52,1.687-1.162,4.661-.043,6.626a5.461,5.461,0,0,0,2.984,2.468C285.507,261.741,286.382,261.97,286.382,261.97Z"></path>
<path class="cls-1" d="M244.86,233.662s.536.729,1.118,1.4a5.457,5.457,0,0,0,3.4,1.861c2.24.313,4.766-1.383,6.141-2.489-1.2-1.293-3.455-3.336-5.717-3.35a5.458,5.458,0,0,0-3.629,1.351C245.5,233.019,244.86,233.662,244.86,233.662Z"></path>
<path class="cls-1" d="M303.022,237.836s-.537-.728-1.118-1.4a5.464,5.464,0,0,0-3.4-1.862c-2.24-.313-4.766,1.383-6.141,2.489,1.2,1.293,3.455,3.336,5.717,3.35a5.461,5.461,0,0,0,3.629-1.35C302.386,238.48,303.022,237.836,303.022,237.836Z"></path>
<path class="cls-1" d="M285.392,230.214s.605.264,1.217.477a3.981,3.981,0,0,0,2.823-.063c1.528-.619,2.5-2.61,2.97-3.81-1.23-.378-3.4-.846-4.831-.031a3.984,3.984,0,0,0-1.8,2.176C285.56,229.575,285.392,230.214,285.392,230.214Z"></path>
<path class="cls-1" d="M262.489,241.285s-.6-.265-1.217-.477a3.985,3.985,0,0,0-2.822.062c-1.528.619-2.5,2.61-2.97,3.81,1.23.379,3.4.847,4.83.031a3.981,3.981,0,0,0,1.8-2.175C262.322,241.923,262.489,241.285,262.489,241.285Z"></path>
<path class="cls-1" d="M274.814,223.082s.531-.391,1.021-.815a3.979,3.979,0,0,0,1.357-2.476c.228-1.632-1.008-3.474-1.814-4.477-.943.876-2.432,2.52-2.442,4.168a3.983,3.983,0,0,0,.984,2.646C274.345,222.618,274.814,223.082,274.814,223.082Z"></path>
<path class="cls-1" d="M273.068,248.416s-.531.391-1.022.815a3.982,3.982,0,0,0-1.356,2.476c-.229,1.633,1.007,3.474,1.814,4.477.943-.876,2.432-2.519,2.442-4.168a3.976,3.976,0,0,0-.985-2.645C273.537,248.88,273.068,248.416,273.068,248.416Z"></path>
<path class="cls-1" d="M263.457,228.591s-.073-.655-.195-1.292a3.98,3.98,0,0,0-1.465-2.413c-1.3-1.014-3.513-.864-4.785-.668.287,1.255.966,3.366,2.389,4.2a3.974,3.974,0,0,0,2.783.47C262.821,228.765,263.457,228.591,263.457,228.591Z"></path>
<path class="cls-1" d="M284.424,242.907s.074.656.2,1.293a3.976,3.976,0,0,0,1.465,2.413c1.3,1.014,3.513.864,4.784.667-.287-1.254-.965-3.366-2.388-4.2a3.98,3.98,0,0,0-2.783-.47C285.061,242.733,284.424,242.907,284.424,242.907Z"></path>
<path class="cls-1" d="M278.006,236.162s.205.3.428.573a2.177,2.177,0,0,0,1.33.785c.889.153,4.032-.14,4.748-.679-.589-.676-3.6-1.608-4.5-1.643a2.179,2.179,0,0,0-1.464.492C278.268,235.913,278.006,236.162,278.006,236.162Z"></path>
<path class="cls-1" d="M269.875,235.337s-.2-.3-.428-.573a2.179,2.179,0,0,0-1.329-.786c-.889-.153-4.032.141-4.748.68.588.676,3.6,1.608,4.5,1.642a2.175,2.175,0,0,0,1.464-.492C269.613,235.585,269.875,235.337,269.875,235.337Z"></path>
<path class="cls-1" d="M276.319,232.448s.36-.029.71-.084a2.181,2.181,0,0,0,1.345-.759c.577-.693,1.891-3.559,1.782-4.448-.879.172-3.191,2.313-3.671,3.076a2.174,2.174,0,0,0-.306,1.513C276.235,232.1,276.319,232.448,276.319,232.448Z"></path>
<path class="cls-1" d="M271.563,239.051s-.36.028-.71.084a2.172,2.172,0,0,0-1.345.759c-.577.693-1.891,3.558-1.782,4.447.879-.171,3.19-2.312,3.671-3.075a2.182,2.182,0,0,0,.306-1.514C271.647,239.4,271.563,239.051,271.563,239.051Z"></path>
<path class="cls-1" d="M272.31,232.011s.155-.326.282-.657a2.172,2.172,0,0,0,.015-1.544c-.311-.847-2.125-3.425-2.949-3.775-.292.847.4,3.927.817,4.725a2.175,2.175,0,0,0,1.158,1.021C271.964,231.908,272.31,232.011,272.31,232.011Z"></path>
<path class="cls-1" d="M275.572,239.488s-.155.325-.283.657a2.184,2.184,0,0,0-.015,1.544c.312.846,2.126,3.424,2.95,3.775.291-.848-.4-3.927-.817-4.725a2.181,2.181,0,0,0-1.158-1.022C275.918,239.59,275.572,239.488,275.572,239.488Z"></path>
</g></g></svg>